# xmcd CD database file
#
# Track frame offsets:
#	150
#	22289
#	41654
#	60435
#	75623
#	96546
#	113586
#	135616
#	156578
#	181615
#	201570
#	219342
#	235857
#
# Disc length: 3399 seconds
#
# Revision: 0
# Processed by: cddbd v1.5PL3 Copyright (c) Steve Scherf et al.
# Submitted via: CDex 1.51
#
DISCID=b50d450d
DTITLE=Ayumi Hamasaki - Rmx Works From Cyber Trance Presents Ayu Trance
DYEAR=2003
DGENRE=JPop
TTITLE0=Ayumi Hamasaki - We Wish (Ramon Zenker Remix)
TTITLE1=Ayumi Hamasaki - Real Me (Megara Vs Dj Lee Remix)
TTITLE2=Ayumi Hamasaki - Voyage (Dirt Devils Remix)
TTITLE3=Ayumi Hamasaki - Everywhere Nowhere (Norman Bass Remix)
TTITLE4=Ayumi Hamasaki - Naturally (Wippenberg Remix)
TTITLE5=Ayumi Hamasaki - July 1st (Flip and Fill Remix)
TTITLE6=Ayumi Hamasaki - Dolls (Future Breeze Remix)
TTITLE7=Ayumi Hamasaki - Heartplace (Lab-4 Remix)
TTITLE8=Ayumi Hamasaki - Never Ever (Decoy and Dj Bonka Remix)
TTITLE9=Ayumi Hamasaki - Endless Sorrow (Voodoo and Serano Remix)
TTITLE10=Ayumi Hamasaki - Rmx Works From Cyber Trance Presents Ayu Trance
TTITLE11=Ayumi Hamasaki - Hanabi (Lange Remix)
TTITLE12=Ayumi Hamasaki - Independent (Cyber Nation Remix)
EXTD=YEAR: 2003
EXTT0=
EXTT1=
EXTT2=
EXTT3=
EXTT4=
EXTT5=
EXTT6=
EXTT7=
EXTT8=
EXTT9=
EXTT10=
EXTT11=
EXTT12=
PLAYORDER=
